<?xml version="1.0" encoding="utf-8"?>
<!-- Generator: Adobe Illustrator 23.0.1, SVG Export Plug-In . SVG Version: 6.00 Build 0)  -->
<svg version="1.1" id="Layer_1" xmlns="http://www.w3.org/2000/svg" xmlns:xlink="http://www.w3.org/1999/xlink" x="0px" y="0px"
	 width="323.28px" height="308px" viewBox="0 0 323.28 308" style="enable-background:new 0 0 323.28 308;" xml:space="preserve">
<style type="text/css">
	.st0{fill:#ffff99;}
	.st1{fill:#ff9933;}
</style>
<g>
	<g>
		<g>
			<path class="st0" d="M101.24,82.94c-7.43,0-13.47-6.04-13.47-13.48c0-7.43,6.04-13.47,13.47-13.47c7.43,0,13.48,6.04,13.48,13.47
				C114.72,76.89,108.67,82.94,101.24,82.94z M101.24,65.6c-2.13,0-3.87,1.73-3.87,3.87s1.73,3.87,3.87,3.87
				c2.14,0,3.88-1.74,3.88-3.87S103.38,65.6,101.24,65.6z"/>
		</g>
	</g>
	<g>
		<g>
			<rect x="96.44" y="20.03" class="st0" width="9.61" height="40.76"/>
		</g>
	</g>
	<g>
		<g>
			<path class="st1" d="M59.58,142.22c-7.54,0-13.66-6.13-13.66-13.67c0-7.54,6.13-13.67,13.66-13.67c7.54,0,13.67,6.13,13.67,13.67
				C73.25,136.09,67.12,142.22,59.58,142.22z M59.58,124.49c-2.24,0-4.06,1.82-4.06,4.06c0,2.24,1.82,4.07,4.06,4.07
				c2.24,0,4.07-1.82,4.07-4.07C63.65,126.31,61.82,124.49,59.58,124.49z"/>
		</g>
	</g>
	<g>
		<g>
			<path class="st0" d="M273.02,107.14c-7.54,0-13.67-6.13-13.67-13.67c0-7.54,6.13-13.67,13.67-13.67
				c7.54,0,13.67,6.13,13.67,13.67C286.7,101,280.56,107.14,273.02,107.14z M273.02,89.4c-2.24,0-4.07,1.82-4.07,4.07
				c0,2.24,1.82,4.07,4.07,4.07c2.24,0,4.07-1.82,4.07-4.07C277.09,91.22,275.27,89.4,273.02,89.4z"/>
		</g>
	</g>
	<g>
		<g>
			<path class="st0" d="M152.43,158.58c-7.54,0-13.67-6.13-13.67-13.67c0-7.54,6.13-13.67,13.67-13.67s13.67,6.13,13.67,13.67
				C166.1,152.45,159.97,158.58,152.43,158.58z M152.43,140.85c-2.24,0-4.07,1.82-4.07,4.07c0,2.24,1.82,4.06,4.07,4.06
				s4.07-1.82,4.07-4.06C156.49,142.67,154.67,140.85,152.43,140.85z"/>
		</g>
	</g>
	<g>
		<g>
			<path class="st1" d="M245.31,139.95c-7.54,0-13.67-6.13-13.67-13.67c0-7.54,6.13-13.67,13.67-13.67s13.67,6.13,13.67,13.67
				C258.99,133.82,252.85,139.95,245.31,139.95z M245.31,122.22c-2.24,0-4.07,1.82-4.07,4.06c0,2.24,1.82,4.06,4.07,4.06
				s4.07-1.82,4.07-4.06C249.38,124.04,247.55,122.22,245.31,122.22z"/>
		</g>
	</g>
	<g>
		<g>
			<path class="st0" d="M139.49,64.67l-7.59-12.11c-1.77-2.83-2.7-6.08-2.7-9.4V6.3h9.61v36.87c0,1.51,0.43,3,1.24,4.3l7.59,12.11
				L139.49,64.67z"/>
		</g>
	</g>
	<g>
		<g>
			<path class="st0" d="M148.17,82.94c-7.43,0-13.47-6.04-13.47-13.48c0-7.43,6.04-13.47,13.47-13.47c7.43,0,13.48,6.04,13.48,13.47
				C161.65,76.89,155.6,82.94,148.17,82.94z M148.17,65.6c-2.13,0-3.87,1.73-3.87,3.87s1.73,3.87,3.87,3.87
				c2.14,0,3.88-1.74,3.88-3.87S150.31,65.6,148.17,65.6z"/>
		</g>
	</g>
	<g>
		<g>
			<rect x="5.85" y="123.75" class="st1" width="44.87" height="9.61"/>
		</g>
	</g>
	<g>
		<g>
			<rect x="115.18" y="10.46" class="st1" width="9.61" height="81.63"/>
		</g>
	</g>
	<g>
		<g>
			<path class="st1" d="M119.99,114.24c-7.43,0-13.48-6.04-13.48-13.48c0-7.43,6.05-13.47,13.48-13.47s13.48,6.04,13.48,13.47
				C133.47,108.2,127.43,114.24,119.99,114.24z M119.99,96.9c-2.13,0-3.87,1.73-3.87,3.87s1.74,3.87,3.87,3.87
				c2.14,0,3.88-1.74,3.88-3.87S122.13,96.9,119.99,96.9z"/>
		</g>
	</g>
	<g>
		<path class="st0" d="M317.68,117.46H297.8c-4.67,0-9.08-1.81-12.41-5.09l-9.42-9.27l6.74-6.85l9.42,9.27
			c1.52,1.5,3.54,2.32,5.67,2.32h19.89V117.46z"/>
	</g>
	<g>
		<g>
			<rect x="254.18" y="121.48" class="st1" width="64.01" height="9.61"/>
		</g>
	</g>
	<g>
		<g>
			<rect x="147.63" y="153.78" class="st0" width="9.61" height="40.71"/>
		</g>
	</g>
	<g>
		<g>
			<path class="st1" d="M190.14,171.16c-7.54,0-13.67-6.13-13.67-13.67s6.13-13.67,13.67-13.67s13.67,6.13,13.67,13.67
				S197.68,171.16,190.14,171.16z M190.14,153.42c-2.24,0-4.07,1.82-4.07,4.07s1.82,4.07,4.07,4.07s4.07-1.82,4.07-4.07
				S192.38,153.42,190.14,153.42z"/>
		</g>
	</g>
	<g>
		<g>
			<rect x="185.34" y="166.35" class="st1" width="9.61" height="28.14"/>
		</g>
	</g>
	<g>
		<g>
			<path class="st0" d="M261.87,180.02c-7.54,0-13.67-6.13-13.67-13.67c0-7.54,6.13-13.67,13.67-13.67
				c7.54,0,13.67,6.13,13.67,13.67C275.53,173.89,269.4,180.02,261.87,180.02z M261.87,162.29c-2.24,0-4.07,1.82-4.07,4.07
				c0,2.24,1.82,4.06,4.07,4.06c2.24,0,4.06-1.82,4.06-4.06C265.93,164.11,264.1,162.29,261.87,162.29z"/>
		</g>
	</g>
	<g>
		<g>
			<path class="st0" d="M271.69,164.07l-6.37-7.19l9.74-8.62c3.25-2.87,7.41-4.45,11.72-4.45h26.84v9.61h-26.84
				c-1.97,0-3.87,0.72-5.36,2.04L271.69,164.07z"/>
		</g>
	</g>
	<g>
		<g>
			<rect x="132.32" y="194.49" class="st0" width="9.61" height="25.69"/>
		</g>
	</g>
	<g>
		<g>
			<path class="st0" d="M137.12,242.33c-7.43,0-13.48-6.04-13.48-13.47c0-7.43,6.04-13.48,13.48-13.48
				c7.43,0,13.48,6.04,13.48,13.48C150.6,236.29,144.56,242.33,137.12,242.33z M137.12,224.99c-2.13,0-3.87,1.74-3.87,3.87
				c0,2.13,1.74,3.87,3.87,3.87c2.14,0,3.88-1.73,3.88-3.87C141,226.73,139.26,224.99,137.12,224.99z"/>
		</g>
	</g>
	<g>
		<g>
			<rect x="193.44" y="194.49" class="st0" width="9.61" height="46.61"/>
		</g>
	</g>
	<g>
		<g>
			<path class="st0" d="M198.25,263.25c-7.43,0-13.48-6.04-13.48-13.48c0-7.43,6.04-13.47,13.48-13.47
				c7.43,0,13.48,6.04,13.48,13.47C211.73,257.2,205.68,263.25,198.25,263.25z M198.25,245.9c-2.13,0-3.87,1.73-3.87,3.87
				c0,2.13,1.74,3.87,3.87,3.87c2.14,0,3.88-1.74,3.88-3.87C202.12,247.64,200.38,245.9,198.25,245.9z"/>
		</g>
	</g>
	<g>
		<g>
			<rect x="156.45" y="194.49" class="st1" width="9.61" height="91.65"/>
		</g>
	</g>
	<g>
		<g>
			<path class="st1" d="M161.25,308.29c-7.43,0-13.48-6.04-13.48-13.48c0-7.43,6.04-13.47,13.48-13.47
				c7.43,0,13.48,6.04,13.48,13.47C174.73,302.24,168.68,308.29,161.25,308.29z M161.25,290.94c-2.13,0-3.87,1.73-3.87,3.87
				c0,2.13,1.74,3.87,3.87,3.87c2.14,0,3.88-1.74,3.88-3.87C165.12,292.68,163.38,290.94,161.25,290.94z"/>
		</g>
	</g>
	<g>
		<g>
			<path class="st1" d="M54.5,249.1H28.13v-9.61H54.5c2.19,0,4.32-0.88,5.86-2.42l10.02-10.02c1.54-1.54,2.42-3.67,2.42-5.86v-26.71
				h9.61v26.71c0,4.72-1.91,9.34-5.24,12.66l-10.01,10.01C63.83,247.19,59.22,249.1,54.5,249.1z"/>
		</g>
	</g>
	<g>
		<path class="st0" d="M294.53,246.52c-7.43,0-13.48-6.04-13.48-13.48c0-7.43,6.04-13.48,13.48-13.48c7.43,0,13.48,6.05,13.48,13.48
			C308.01,240.48,301.96,246.52,294.53,246.52z M294.53,229.17c-2.13,0-3.87,1.74-3.87,3.87c0,2.13,1.74,3.87,3.87,3.87
			c2.14,0,3.87-1.74,3.87-3.87C298.4,230.91,296.66,229.17,294.53,229.17z"/>
	</g>
	<g>
		<g>
			<path class="st1" d="M248.29,272.7l-23.55-15.55c-4.74-3.21-7.55-8.5-7.55-14.17v-48.5h9.61v48.5c0,2.48,1.23,4.79,3.28,6.18
				l23.51,15.52L248.29,272.7z"/>
		</g>
	</g>
	<g>
		<g>
			<path class="st1" d="M258.12,287.03c-7.43,0-13.47-6.04-13.47-13.48c0-7.43,6.04-13.47,13.47-13.47
				c7.43,0,13.48,6.04,13.48,13.47C271.6,280.98,265.56,287.03,258.12,287.03z M258.12,269.69c-2.13,0-3.87,1.73-3.87,3.87
				s1.73,3.87,3.87,3.87c2.14,0,3.88-1.74,3.88-3.87S260.26,269.69,258.12,269.69z"/>
		</g>
	</g>
	<g>
		<g>
			<path class="st0" d="M285.86,237.85h-30.99c-8.15,0-14.77-6.63-14.77-14.78v-28.59h9.61v28.59c0,2.85,2.32,5.17,5.16,5.17h30.99
				V237.85z"/>
		</g>
	</g>
	<g>
		<g>
			<path class="st1" d="M19.45,257.78c-7.43,0-13.48-6.04-13.48-13.47c0-7.43,6.04-13.48,13.48-13.48c7.43,0,13.48,6.04,13.48,13.48
				C32.93,251.73,26.88,257.78,19.45,257.78z M19.45,240.43c-2.13,0-3.87,1.74-3.87,3.87c0,2.13,1.74,3.87,3.87,3.87
				c2.14,0,3.88-1.73,3.88-3.87C23.33,242.17,21.59,240.43,19.45,240.43z"/>
		</g>
	</g>
	<g>
		<g>
			<path class="st0" d="M75.45,285.63l-6.79-6.8l19.76-19.75c1.28-1.28,2.02-3.07,2.02-4.9v-59.7h9.61v59.7
				c0,4.42-1.72,8.58-4.84,11.7L75.45,285.63z"/>
		</g>
	</g>
	<g>
		<g>
			<path class="st0" d="M65.92,301.85c-7.43,0-13.47-6.04-13.47-13.48c0-7.43,6.04-13.47,13.47-13.47c7.43,0,13.48,6.04,13.48,13.47
				C79.4,295.8,73.35,301.85,65.92,301.85z M65.92,284.5c-2.13,0-3.87,1.73-3.87,3.87s1.73,3.87,3.87,3.87
				c2.14,0,3.88-1.74,3.88-3.87S68.06,284.5,65.92,284.5z"/>
		</g>
	</g>
	<g>
		<g>
			<path class="st0" d="M250.1,199.29H55.77c-30.85,0-55.95-26.44-55.95-58.94c0-32.5,25.1-58.95,55.95-58.95c0,0,0,0,0.01,0
				c1.86,0,3.37-1.22,3.67-2.9c8.19-45.32,45.35-78.21,88.37-78.21c31.78,0,60.58,17.47,77.06,46.73c0.8,1.42,2.56,2.08,4.19,1.55
				c6.81-2.16,13.89-3.26,21.03-3.26c40.25,0,72.99,34.54,72.99,76.99c0,23.3-9.85,45.1-27.02,59.81
				C283.14,193.19,266.82,199.29,250.1,199.29z M55.84,91.01c-25.62,0-46.41,22.13-46.41,49.34c0,27.2,20.79,49.33,46.34,49.33
				H250.1c14.42,0,28.53-5.28,39.73-14.88c15.04-12.88,23.66-32.02,23.66-52.51c0-37.15-28.44-67.38-63.39-67.38
				c-6.16,0-12.25,0.95-18.12,2.81c-5.93,1.89-12.45-0.63-15.47-5.99c-14.76-26.2-40.43-41.84-68.69-41.84
				c-38.37,0-71.56,29.57-78.92,70.31c-1.12,6.26-6.6,10.81-13.04,10.81C55.85,91.01,55.85,91.01,55.84,91.01z"/>
		</g>
	</g>
</g>
</svg>
